<svg width="1082" height="885" viewBox="0 0 1082 885" fill="none" xmlns="http://www.w3.org/2000/svg">
<rect x="-28.7517" y="172.403" width="41.139" height="12.3417" fill="#292929"/>
<rect x="0.0455322" y="184.745" width="41.139" height="12.3417" transform="rotate(-90 0.0455322 184.745)" fill="#292929"/>
<rect x="0.0455322" y="143.606" width="41.139" height="12.3417" fill="#292929"/>
<rect x="28.8428" y="155.948" width="41.139" height="12.3417" transform="rotate(-90 28.8428 155.948)" fill="#292929"/>
<rect x="32.9567" y="114.809" width="41.139" height="12.3417" fill="#292929"/>
<rect x="61.754" y="127.15" width="41.139" height="12.3417" transform="rotate(-90 61.754 127.15)" fill="#292929"/>
<rect x="65.8679" y="86.0114" width="41.139" height="12.3417" fill="#292929"/>
<rect x="94.6651" y="98.3531" width="41.139" height="12.3417" transform="rotate(-90 94.6651 98.3531)" fill="#292929"/>
<rect x="94.6652" y="57.2141" width="41.139" height="12.3417" fill="#292929"/>
<rect x="123.462" y="69.5558" width="41.139" height="12.3417" transform="rotate(-90 123.462 69.5558)" fill="#292929"/>
<rect x="127.576" y="28.4169" width="41.139" height="12.3417" fill="#292929"/>
<rect x="156.374" y="40.7585" width="41.139" height="12.3417" transform="rotate(-90 156.374 40.7585)" fill="#292929"/>
<rect x="156.374" y="-0.380402" width="41.139" height="12.3417" fill="#292929"/>
<rect x="185.171" y="11.9613" width="41.139" height="12.3417" transform="rotate(-90 185.171 11.9613)" fill="#292929"/>
<rect x="-32.8656" y="225.884" width="41.139" height="12.3417" fill="#292929"/>
<rect x="-4.06836" y="238.226" width="41.139" height="12.3417" transform="rotate(-90 -4.06836 238.226)" fill="#292929"/>
<rect x="-4.06836" y="197.087" width="41.139" height="12.3417" fill="#292929"/>
<rect x="24.7289" y="209.428" width="41.139" height="12.3417" transform="rotate(-90 24.7289 209.428)" fill="#292929"/>
<rect x="28.8428" y="168.289" width="41.139" height="12.3417" fill="#292929"/>
<rect x="57.6401" y="180.631" width="41.139" height="12.3417" transform="rotate(-90 57.6401 180.631)" fill="#292929"/>
<rect x="61.754" y="139.492" width="41.139" height="12.3417" fill="#292929"/>
<rect x="90.5512" y="151.834" width="41.139" height="12.3417" transform="rotate(-90 90.5512 151.834)" fill="#292929"/>
<rect x="90.5513" y="110.695" width="41.139" height="12.3417" fill="#292929"/>
<rect x="119.349" y="123.036" width="41.139" height="12.3417" transform="rotate(-90 119.349 123.036)" fill="#292929"/>
<rect x="123.462" y="81.8975" width="41.139" height="12.3417" fill="#292929"/>
<rect x="152.26" y="94.2392" width="41.139" height="12.3417" transform="rotate(-90 152.26 94.2392)" fill="#292929"/>
<rect x="152.26" y="53.1002" width="41.139" height="12.3417" fill="#292929"/>
<rect x="181.057" y="65.4419" width="41.139" height="12.3417" transform="rotate(-90 181.057 65.4419)" fill="#292929"/>
<rect x="185.171" y="24.3029" width="41.139" height="12.3417" fill="#292929"/>
<rect x="213.968" y="36.6447" width="41.139" height="12.3417" transform="rotate(-90 213.968 36.6447)" fill="#292929"/>
<rect x="-41.0934" y="279.364" width="41.139" height="12.3417" fill="#292929"/>
<rect x="-12.2962" y="291.706" width="41.139" height="12.3417" transform="rotate(-90 -12.2962 291.706)" fill="#292929"/>
<rect x="-8.18231" y="250.567" width="41.139" height="12.3417" fill="#292929"/>
<rect x="20.615" y="262.909" width="41.139" height="12.3417" transform="rotate(-90 20.615 262.909)" fill="#292929"/>
<rect x="24.7289" y="221.77" width="41.139" height="12.3417" fill="#292929"/>
<rect x="53.5262" y="234.112" width="41.139" height="12.3417" transform="rotate(-90 53.5262 234.112)" fill="#292929"/>
<rect x="53.5261" y="192.973" width="41.139" height="12.3417" fill="#292929"/>
<rect x="82.3234" y="205.314" width="41.139" height="12.3417" transform="rotate(-90 82.3234 205.314)" fill="#292929"/>
<rect x="86.4373" y="164.175" width="41.139" height="12.3417" fill="#292929"/>
<rect x="115.235" y="176.517" width="41.139" height="12.3417" transform="rotate(-90 115.235 176.517)" fill="#292929"/>
<rect x="119.348" y="135.378" width="41.139" height="12.3417" fill="#292929"/>
<rect x="148.146" y="147.72" width="41.139" height="12.3417" transform="rotate(-90 148.146 147.72)" fill="#292929"/>
<rect x="148.146" y="106.581" width="41.139" height="12.3417" fill="#292929"/>
<rect x="176.943" y="118.923" width="41.139" height="12.3417" transform="rotate(-90 176.943 118.923)" fill="#292929"/>
<rect x="181.057" y="77.7836" width="41.139" height="12.3417" fill="#292929"/>
<rect x="209.854" y="90.1253" width="41.139" height="12.3417" transform="rotate(-90 209.854 90.1253)" fill="#292929"/>
<rect x="209.854" y="48.9863" width="41.139" height="12.3417" fill="#292929"/>
<rect x="238.651" y="61.328" width="41.139" height="12.3417" transform="rotate(-90 238.651 61.328)" fill="#292929"/>
<rect x="242.765" y="20.1891" width="41.139" height="12.3417" fill="#292929"/>
<rect x="271.563" y="32.5308" width="41.139" height="12.3417" transform="rotate(-90 271.563 32.5308)" fill="#292929"/>
<rect x="-12.2961" y="304.048" width="41.139" height="12.3417" fill="#292929"/>
<rect x="16.5011" y="316.39" width="41.139" height="12.3417" transform="rotate(-90 16.5011 316.39)" fill="#292929"/>
<rect x="16.5012" y="275.251" width="41.139" height="12.3417" fill="#292929"/>
<rect x="45.2984" y="287.592" width="41.139" height="12.3417" transform="rotate(-90 45.2984 287.592)" fill="#292929"/>
<rect x="49.4123" y="246.453" width="41.139" height="12.3417" fill="#292929"/>
<rect x="78.2096" y="258.795" width="41.139" height="12.3417" transform="rotate(-90 78.2096 258.795)" fill="#292929"/>
<rect x="78.2096" y="217.656" width="41.139" height="12.3417" fill="#292929"/>
<rect x="107.007" y="229.998" width="41.139" height="12.3417" transform="rotate(-90 107.007 229.998)" fill="#292929"/>
<rect x="111.121" y="188.859" width="41.139" height="12.3417" fill="#292929"/>
<rect x="139.918" y="201.2" width="41.139" height="12.3417" transform="rotate(-90 139.918 201.2)" fill="#292929"/>
<rect x="144.032" y="160.062" width="41.139" height="12.3417" fill="#292929"/>
<rect x="172.829" y="172.403" width="41.139" height="12.3417" transform="rotate(-90 172.829 172.403)" fill="#292929"/>
<rect x="172.829" y="131.264" width="41.139" height="12.3417" fill="#292929"/>
<rect x="201.626" y="143.606" width="41.139" height="12.3417" transform="rotate(-90 201.626 143.606)" fill="#292929"/>
<rect x="205.74" y="102.467" width="41.139" height="12.3417" fill="#292929"/>
<rect x="234.538" y="114.809" width="41.139" height="12.3417" transform="rotate(-90 234.538 114.809)" fill="#292929"/>
<rect x="238.651" y="73.6697" width="41.139" height="12.3417" fill="#292929"/>
<rect x="267.449" y="86.0114" width="41.139" height="12.3417" transform="rotate(-90 267.449 86.0114)" fill="#292929"/>
<rect x="267.449" y="44.8724" width="41.139" height="12.3417" fill="#292929"/>
<rect x="296.246" y="57.2141" width="41.139" height="12.3417" transform="rotate(-90 296.246 57.2141)" fill="#292929"/>
<rect x="300.36" y="16.0752" width="41.139" height="12.3417" fill="#292929"/>
<rect x="329.157" y="28.4169" width="41.139" height="12.3417" transform="rotate(-90 329.157 28.4169)" fill="#292929"/>
<rect x="-16.41" y="357.528" width="41.139" height="12.3417" fill="#292929"/>
<rect x="12.3872" y="369.87" width="41.139" height="12.3417" transform="rotate(-90 12.3872 369.87)" fill="#292929"/>
<rect x="12.3872" y="328.731" width="41.139" height="12.3417" fill="#292929"/>
<rect x="41.1845" y="341.073" width="41.139" height="12.3417" transform="rotate(-90 41.1845 341.073)" fill="#292929"/>
<rect x="45.2984" y="299.934" width="41.139" height="12.3417" fill="#292929"/>
<rect x="74.0957" y="312.276" width="41.139" height="12.3417" transform="rotate(-90 74.0957 312.276)" fill="#292929"/>
<rect x="74.0957" y="271.137" width="41.139" height="12.3417" fill="#292929"/>
<rect x="102.893" y="283.478" width="41.139" height="12.3417" transform="rotate(-90 102.893 283.478)" fill="#292929"/>
<rect x="107.007" y="242.339" width="41.139" height="12.3417" fill="#292929"/>
<rect x="135.804" y="254.681" width="41.139" height="12.3417" transform="rotate(-90 135.804 254.681)" fill="#292929"/>
<rect x="139.918" y="213.542" width="41.139" height="12.3417" fill="#292929"/>
<rect x="168.715" y="225.884" width="41.139" height="12.3417" transform="rotate(-90 168.715 225.884)" fill="#292929"/>
<rect x="168.715" y="184.745" width="41.139" height="12.3417" fill="#292929"/>
<rect x="197.513" y="197.087" width="41.139" height="12.3417" transform="rotate(-90 197.513 197.087)" fill="#292929"/>
<rect x="201.626" y="155.948" width="41.139" height="12.3417" fill="#292929"/>
<rect x="230.424" y="168.289" width="41.139" height="12.3417" transform="rotate(-90 230.424 168.289)" fill="#292929"/>
<rect x="234.538" y="127.15" width="41.139" height="12.3417" fill="#292929"/>
<rect x="263.335" y="139.492" width="41.139" height="12.3417" transform="rotate(-90 263.335 139.492)" fill="#292929"/>
<rect x="263.335" y="98.3531" width="41.139" height="12.3417" fill="#292929"/>
<rect x="292.132" y="110.695" width="41.139" height="12.3417" transform="rotate(-90 292.132 110.695)" fill="#292929"/>
<rect x="296.246" y="69.5558" width="41.139" height="12.3417" fill="#292929"/>
<rect x="325.043" y="81.8975" width="41.139" height="12.3417" transform="rotate(-90 325.043 81.8975)" fill="#292929"/>
<rect x="325.043" y="40.7585" width="41.139" height="12.3417" fill="#292929"/>
<rect x="353.841" y="53.1002" width="41.139" height="12.3417" transform="rotate(-90 353.841 53.1002)" fill="#292929"/>
<rect x="357.954" y="11.9613" width="41.139" height="12.3417" fill="#292929"/>
<rect x="386.752" y="24.3029" width="41.139" height="12.3417" transform="rotate(-90 386.752 24.3029)" fill="#292929"/>
<rect x="-20.5239" y="411.009" width="41.139" height="12.3417" fill="#292929"/>
<rect x="8.27338" y="423.351" width="41.139" height="12.3417" transform="rotate(-90 8.27338 423.351)" fill="#292929"/>
<rect x="8.27344" y="382.212" width="41.139" height="12.3417" fill="#292929"/>
<rect x="37.0707" y="394.554" width="41.139" height="12.3417" transform="rotate(-90 37.0707 394.554)" fill="#292929"/>
<rect x="41.1846" y="353.415" width="41.139" height="12.3417" fill="#292929"/>
<rect x="69.9818" y="365.756" width="41.139" height="12.3417" transform="rotate(-90 69.9818 365.756)" fill="#292929"/>
<rect x="69.9818" y="324.617" width="41.139" height="12.3417" fill="#292929"/>
<rect x="98.7791" y="336.959" width="41.139" height="12.3417" transform="rotate(-90 98.7791 336.959)" fill="#292929"/>
<rect x="102.893" y="295.82" width="41.139" height="12.3417" fill="#292929"/>
<rect x="131.69" y="308.162" width="41.139" height="12.3417" transform="rotate(-90 131.69 308.162)" fill="#292929"/>
<rect x="131.69" y="267.023" width="41.139" height="12.3417" fill="#292929"/>
<rect x="160.488" y="279.364" width="41.139" height="12.3417" transform="rotate(-90 160.488 279.364)" fill="#292929"/>
<rect x="164.601" y="238.226" width="41.139" height="12.3417" fill="#292929"/>
<rect x="193.399" y="250.567" width="41.139" height="12.3417" transform="rotate(-90 193.399 250.567)" fill="#292929"/>
<rect x="197.513" y="209.428" width="41.139" height="12.3417" fill="#292929"/>
<rect x="226.31" y="221.77" width="41.139" height="12.3417" transform="rotate(-90 226.31 221.77)" fill="#292929"/>
<rect x="226.31" y="180.631" width="41.139" height="12.3417" fill="#292929"/>
<rect x="255.107" y="192.973" width="41.139" height="12.3417" transform="rotate(-90 255.107 192.973)" fill="#292929"/>
<rect x="259.221" y="151.834" width="41.139" height="12.3417" fill="#292929"/>
<rect x="288.018" y="164.175" width="41.139" height="12.3417" transform="rotate(-90 288.018 164.175)" fill="#292929"/>
<rect x="292.132" y="123.036" width="41.139" height="12.3417" fill="#292929"/>
<rect x="320.929" y="135.378" width="41.139" height="12.3417" transform="rotate(-90 320.929 135.378)" fill="#292929"/>
<rect x="320.929" y="94.2392" width="41.139" height="12.3417" fill="#292929"/>
<rect x="349.727" y="106.581" width="41.139" height="12.3417" transform="rotate(-90 349.727 106.581)" fill="#292929"/>
<rect x="353.841" y="65.4419" width="41.139" height="12.3417" fill="#292929"/>
<rect x="382.638" y="77.7836" width="41.139" height="12.3417" transform="rotate(-90 382.638 77.7836)" fill="#292929"/>
<rect x="382.638" y="36.6447" width="41.139" height="12.3417" fill="#292929"/>
<rect x="411.435" y="48.9863" width="41.139" height="12.3417" transform="rotate(-90 411.435 48.9863)" fill="#292929"/>
<rect x="415.549" y="7.84738" width="41.139" height="12.3417" fill="#292929"/>
<rect x="444.346" y="20.1891" width="41.139" height="12.3417" transform="rotate(-90 444.346 20.1891)" fill="#292929"/>
<rect x="-28.7517" y="464.49" width="41.139" height="12.3417" fill="#292929"/>
<rect x="0.0455322" y="476.831" width="41.139" height="12.3417" transform="rotate(-90 0.0455322 476.831)" fill="#292929"/>
<rect x="4.15948" y="435.692" width="41.139" height="12.3417" fill="#292929"/>
<rect x="32.9568" y="448.034" width="41.139" height="12.3417" transform="rotate(-90 32.9568 448.034)" fill="#292929"/>
<rect x="32.9568" y="406.895" width="41.139" height="12.3417" fill="#292929"/>
<rect x="61.754" y="419.237" width="41.139" height="12.3417" transform="rotate(-90 61.754 419.237)" fill="#292929"/>
<rect x="65.8679" y="378.098" width="41.139" height="12.3417" fill="#292929"/>
<rect x="94.6652" y="390.44" width="41.139" height="12.3417" transform="rotate(-90 94.6652 390.44)" fill="#292929"/>
<rect x="98.7791" y="349.301" width="41.139" height="12.3417" fill="#292929"/>
<rect x="127.576" y="361.642" width="41.139" height="12.3417" transform="rotate(-90 127.576 361.642)" fill="#292929"/>
<rect x="127.576" y="320.503" width="41.139" height="12.3417" fill="#292929"/>
<rect x="156.374" y="332.845" width="41.139" height="12.3417" transform="rotate(-90 156.374 332.845)" fill="#292929"/>
<rect x="160.487" y="291.706" width="41.139" height="12.3417" fill="#292929"/>
<rect x="189.285" y="304.048" width="41.139" height="12.3417" transform="rotate(-90 189.285 304.048)" fill="#292929"/>
<rect x="189.285" y="262.909" width="41.139" height="12.3417" fill="#292929"/>
<rect x="218.082" y="275.251" width="41.139" height="12.3417" transform="rotate(-90 218.082 275.251)" fill="#292929"/>
<rect x="222.196" y="234.112" width="41.139" height="12.3417" fill="#292929"/>
<rect x="250.993" y="246.453" width="41.139" height="12.3417" transform="rotate(-90 250.993 246.453)" fill="#292929"/>
<rect x="250.993" y="205.314" width="41.139" height="12.3417" fill="#292929"/>
<rect x="279.79" y="217.656" width="41.139" height="12.3417" transform="rotate(-90 279.79 217.656)" fill="#292929"/>
<rect x="283.904" y="176.517" width="41.139" height="12.3417" fill="#292929"/>
<rect x="312.702" y="188.859" width="41.139" height="12.3417" transform="rotate(-90 312.702 188.859)" fill="#292929"/>
<rect x="316.815" y="147.72" width="41.139" height="12.3417" fill="#292929"/>
<rect x="345.613" y="160.062" width="41.139" height="12.3417" transform="rotate(-90 345.613 160.062)" fill="#292929"/>
<rect x="345.613" y="118.923" width="41.139" height="12.3417" fill="#292929"/>
<rect x="374.41" y="131.264" width="41.139" height="12.3417" transform="rotate(-90 374.41 131.264)" fill="#292929"/>
<rect x="378.524" y="90.1253" width="41.139" height="12.3417" fill="#292929"/>
<rect x="407.321" y="102.467" width="41.139" height="12.3417" transform="rotate(-90 407.321 102.467)" fill="#292929"/>
<rect x="411.435" y="61.328" width="41.139" height="12.3417" fill="#292929"/>
<rect x="440.232" y="73.6697" width="41.139" height="12.3417" transform="rotate(-90 440.232 73.6697)" fill="#292929"/>
<rect x="440.232" y="32.5308" width="41.139" height="12.3417" fill="#292929"/>
<rect x="469.03" y="44.8724" width="41.139" height="12.3417" transform="rotate(-90 469.03 44.8724)" fill="#292929"/>
<rect x="473.144" y="3.73349" width="41.139" height="12.3417" fill="#292929"/>
<rect x="501.941" y="16.0752" width="41.139" height="12.3417" transform="rotate(-90 501.941 16.0752)" fill="#292929"/>
<rect x="-32.8656" y="517.97" width="41.139" height="12.3417" fill="#292929"/>
<rect x="-4.06836" y="530.312" width="41.139" height="12.3417" transform="rotate(-90 -4.06836 530.312)" fill="#292929"/>
<rect x="0.0455933" y="489.173" width="41.139" height="12.3417" fill="#292929"/>
<rect x="28.8429" y="501.515" width="41.139" height="12.3417" transform="rotate(-90 28.8429 501.515)" fill="#292929"/>
<rect x="28.8429" y="460.376" width="41.139" height="12.3417" fill="#292929"/>
<rect x="57.6401" y="472.718" width="41.139" height="12.3417" transform="rotate(-90 57.6401 472.718)" fill="#292929"/>
<rect x="61.754" y="431.579" width="41.139" height="12.3417" fill="#292929"/>
<rect x="90.5513" y="443.92" width="41.139" height="12.3417" transform="rotate(-90 90.5513 443.92)" fill="#292929"/>
<rect x="94.6652" y="402.781" width="41.139" height="12.3417" fill="#292929"/>
<rect x="123.462" y="415.123" width="41.139" height="12.3417" transform="rotate(-90 123.462 415.123)" fill="#292929"/>
<rect x="123.462" y="373.984" width="41.139" height="12.3417" fill="#292929"/>
<rect x="152.26" y="386.326" width="41.139" height="12.3417" transform="rotate(-90 152.26 386.326)" fill="#292929"/>
<rect x="156.374" y="345.187" width="41.139" height="12.3417" fill="#292929"/>
<rect x="185.171" y="357.528" width="41.139" height="12.3417" transform="rotate(-90 185.171 357.528)" fill="#292929"/>
<rect x="185.171" y="316.39" width="41.139" height="12.3417" fill="#292929"/>
<rect x="213.968" y="328.731" width="41.139" height="12.3417" transform="rotate(-90 213.968 328.731)" fill="#292929"/>
<rect x="218.082" y="287.592" width="41.139" height="12.3417" fill="#292929"/>
<rect x="246.879" y="299.934" width="41.139" height="12.3417" transform="rotate(-90 246.879 299.934)" fill="#292929"/>
<rect x="246.879" y="258.795" width="41.139" height="12.3417" fill="#292929"/>
<rect x="275.677" y="271.137" width="41.139" height="12.3417" transform="rotate(-90 275.677 271.137)" fill="#292929"/>
<rect x="279.79" y="229.998" width="41.139" height="12.3417" fill="#292929"/>
<rect x="308.588" y="242.339" width="41.139" height="12.3417" transform="rotate(-90 308.588 242.339)" fill="#292929"/>
<rect x="312.702" y="201.2" width="41.139" height="12.3417" fill="#292929"/>
<rect x="341.499" y="213.542" width="41.139" height="12.3417" transform="rotate(-90 341.499 213.542)" fill="#292929"/>
<rect x="341.499" y="172.403" width="41.139" height="12.3417" fill="#292929"/>
<rect x="370.296" y="184.745" width="41.139" height="12.3417" transform="rotate(-90 370.296 184.745)" fill="#292929"/>
<rect x="374.41" y="143.606" width="41.139" height="12.3417" fill="#292929"/>
<rect x="403.207" y="155.948" width="41.139" height="12.3417" transform="rotate(-90 403.207 155.948)" fill="#292929"/>
<rect x="407.321" y="114.809" width="41.139" height="12.3417" fill="#292929"/>
<rect x="436.118" y="127.15" width="41.139" height="12.3417" transform="rotate(-90 436.118 127.15)" fill="#292929"/>
<rect x="436.118" y="86.0114" width="41.139" height="12.3417" fill="#292929"/>
<rect x="464.916" y="98.3531" width="41.139" height="12.3417" transform="rotate(-90 464.916 98.3531)" fill="#292929"/>
<rect x="469.03" y="57.2141" width="41.139" height="12.3417" fill="#292929"/>
<rect x="497.827" y="69.5558" width="41.139" height="12.3417" transform="rotate(-90 497.827 69.5558)" fill="#292929"/>
<rect x="497.827" y="28.4169" width="41.139" height="12.3417" fill="#292929"/>
<rect x="526.624" y="40.7585" width="41.139" height="12.3417" transform="rotate(-90 526.624 40.7585)" fill="#292929"/>
<rect x="530.738" y="-0.380402" width="41.139" height="12.3417" fill="#292929"/>
<rect x="559.535" y="11.9613" width="41.139" height="12.3417" transform="rotate(-90 559.535 11.9613)" fill="#292929"/>
<rect x="-36.9795" y="571.451" width="41.139" height="12.3417" fill="#292929"/>
<rect x="-8.18225" y="583.793" width="41.139" height="12.3417" transform="rotate(-90 -8.18225 583.793)" fill="#292929"/>
<rect x="-8.18225" y="542.654" width="41.139" height="12.3417" fill="#292929"/>
<rect x="20.615" y="554.995" width="41.139" height="12.3417" transform="rotate(-90 20.615 554.995)" fill="#292929"/>
<rect x="24.7289" y="513.856" width="41.139" height="12.3417" fill="#292929"/>
<rect x="53.5262" y="526.198" width="41.139" height="12.3417" transform="rotate(-90 53.5262 526.198)" fill="#292929"/>
<rect x="57.6401" y="485.059" width="41.139" height="12.3417" fill="#292929"/>
<rect x="86.4373" y="497.401" width="41.139" height="12.3417" transform="rotate(-90 86.4373 497.401)" fill="#292929"/>
<rect x="86.4373" y="456.262" width="41.139" height="12.3417" fill="#292929"/>
<rect x="115.235" y="468.604" width="41.139" height="12.3417" transform="rotate(-90 115.235 468.604)" fill="#292929"/>
<rect x="119.348" y="427.465" width="41.139" height="12.3417" fill="#292929"/>
<rect x="148.146" y="439.806" width="41.139" height="12.3417" transform="rotate(-90 148.146 439.806)" fill="#292929"/>
<rect x="152.26" y="398.667" width="41.139" height="12.3417" fill="#292929"/>
<rect x="181.057" y="411.009" width="41.139" height="12.3417" transform="rotate(-90 181.057 411.009)" fill="#292929"/>
<rect x="181.057" y="369.87" width="41.139" height="12.3417" fill="#292929"/>
<rect x="209.854" y="382.212" width="41.139" height="12.3417" transform="rotate(-90 209.854 382.212)" fill="#292929"/>
<rect x="213.968" y="341.073" width="41.139" height="12.3417" fill="#292929"/>
<rect x="242.765" y="353.415" width="41.139" height="12.3417" transform="rotate(-90 242.765 353.415)" fill="#292929"/>
<rect x="242.765" y="312.276" width="41.139" height="12.3417" fill="#292929"/>
<rect x="271.563" y="324.617" width="41.139" height="12.3417" transform="rotate(-90 271.563 324.617)" fill="#292929"/>
<rect x="275.677" y="283.478" width="41.139" height="12.3417" fill="#292929"/>
<rect x="304.474" y="295.82" width="41.139" height="12.3417" transform="rotate(-90 304.474 295.82)" fill="#292929"/>
<rect x="304.474" y="254.681" width="41.139" height="12.3417" fill="#292929"/>
<rect x="333.271" y="267.023" width="41.139" height="12.3417" transform="rotate(-90 333.271 267.023)" fill="#292929"/>
<rect x="337.385" y="225.884" width="41.139" height="12.3417" fill="#292929"/>
<rect x="366.182" y="238.226" width="41.139" height="12.3417" transform="rotate(-90 366.182 238.226)" fill="#292929"/>
<rect x="370.296" y="197.087" width="41.139" height="12.3417" fill="#292929"/>
<rect x="399.093" y="209.428" width="41.139" height="12.3417" transform="rotate(-90 399.093 209.428)" fill="#292929"/>
<rect x="399.093" y="168.289" width="41.139" height="12.3417" fill="#292929"/>
<rect x="427.891" y="180.631" width="41.139" height="12.3417" transform="rotate(-90 427.891 180.631)" fill="#292929"/>
<rect x="432.005" y="139.492" width="41.139" height="12.3417" fill="#292929"/>
<rect x="460.802" y="151.834" width="41.139" height="12.3417" transform="rotate(-90 460.802 151.834)" fill="#292929"/>
<rect x="464.916" y="110.695" width="41.139" height="12.3417" fill="#292929"/>
<rect x="493.713" y="123.036" width="41.139" height="12.3417" transform="rotate(-90 493.713 123.036)" fill="#292929"/>
<rect x="493.713" y="81.8975" width="41.139" height="12.3417" fill="#292929"/>
<rect x="522.51" y="94.2392" width="41.139" height="12.3417" transform="rotate(-90 522.51 94.2392)" fill="#292929"/>
<rect x="526.624" y="53.1002" width="41.139" height="12.3417" fill="#292929"/>
<rect x="555.421" y="65.4419" width="41.139" height="12.3417" transform="rotate(-90 555.421 65.4419)" fill="#292929"/>
<rect x="555.421" y="24.3029" width="41.139" height="12.3417" fill="#292929"/>
<rect x="584.219" y="36.6447" width="41.139" height="12.3417" transform="rotate(-90 584.219 36.6447)" fill="#292929"/>
<rect x="588.333" y="-4.49429" width="41.139" height="12.3417" fill="#292929"/>
<rect x="617.13" y="7.84738" width="41.139" height="12.3417" transform="rotate(-90 617.13 7.84738)" fill="#292929"/>
<rect x="-41.0934" y="624.932" width="41.139" height="12.3417" fill="#292929"/>
<rect x="-12.2961" y="637.273" width="41.139" height="12.3417" transform="rotate(-90 -12.2961 637.273)" fill="#292929"/>
<rect x="-12.2961" y="596.134" width="41.139" height="12.3417" fill="#292929"/>
<rect x="16.5012" y="608.476" width="41.139" height="12.3417" transform="rotate(-90 16.5012 608.476)" fill="#292929"/>
<rect x="20.6151" y="567.337" width="41.139" height="12.3417" fill="#292929"/>
<rect x="49.4123" y="579.679" width="41.139" height="12.3417" transform="rotate(-90 49.4123 579.679)" fill="#292929"/>
<rect x="49.4124" y="538.54" width="41.139" height="12.3417" fill="#292929"/>
<rect x="78.2096" y="550.882" width="41.139" height="12.3417" transform="rotate(-90 78.2096 550.882)" fill="#292929"/>
<rect x="82.3235" y="509.743" width="41.139" height="12.3417" fill="#292929"/>
<rect x="111.121" y="522.084" width="41.139" height="12.3417" transform="rotate(-90 111.121 522.084)" fill="#292929"/>
<rect x="111.121" y="480.945" width="41.139" height="12.3417" fill="#292929"/>
<rect x="139.918" y="493.287" width="41.139" height="12.3417" transform="rotate(-90 139.918 493.287)" fill="#292929"/>
<rect x="144.032" y="452.148" width="41.139" height="12.3417" fill="#292929"/>
<rect x="172.829" y="464.49" width="41.139" height="12.3417" transform="rotate(-90 172.829 464.49)" fill="#292929"/>
<rect x="176.943" y="423.351" width="41.139" height="12.3417" fill="#292929"/>
<rect x="205.74" y="435.692" width="41.139" height="12.3417" transform="rotate(-90 205.74 435.692)" fill="#292929"/>
<rect x="205.74" y="394.554" width="41.139" height="12.3417" fill="#292929"/>
<rect x="234.538" y="406.895" width="41.139" height="12.3417" transform="rotate(-90 234.538 406.895)" fill="#292929"/>
<rect x="238.652" y="365.756" width="41.139" height="12.3417" fill="#292929"/>
<rect x="267.449" y="378.098" width="41.139" height="12.3417" transform="rotate(-90 267.449 378.098)" fill="#292929"/>
<rect x="271.563" y="336.959" width="41.139" height="12.3417" fill="#292929"/>
<rect x="300.36" y="349.301" width="41.139" height="12.3417" transform="rotate(-90 300.36 349.301)" fill="#292929"/>
<rect x="300.36" y="308.162" width="41.139" height="12.3417" fill="#292929"/>
<rect x="329.157" y="320.503" width="41.139" height="12.3417" transform="rotate(-90 329.157 320.503)" fill="#292929"/>
<rect x="333.271" y="279.364" width="41.139" height="12.3417" fill="#292929"/>
<rect x="362.068" y="291.706" width="41.139" height="12.3417" transform="rotate(-90 362.068 291.706)" fill="#292929"/>
<rect x="362.068" y="250.567" width="41.139" height="12.3417" fill="#292929"/>
<rect x="390.866" y="262.909" width="41.139" height="12.3417" transform="rotate(-90 390.866 262.909)" fill="#292929"/>
<rect x="394.98" y="221.77" width="41.139" height="12.3417" fill="#292929"/>
<rect x="423.777" y="234.112" width="41.139" height="12.3417" transform="rotate(-90 423.777 234.112)" fill="#292929"/>
<rect x="423.777" y="192.973" width="41.139" height="12.3417" fill="#292929"/>
<rect x="452.574" y="205.314" width="41.139" height="12.3417" transform="rotate(-90 452.574 205.314)" fill="#292929"/>
<rect x="456.688" y="164.175" width="41.139" height="12.3417" fill="#292929"/>
<rect x="485.485" y="176.517" width="41.139" height="12.3417" transform="rotate(-90 485.485 176.517)" fill="#292929"/>
<rect x="489.599" y="135.378" width="41.139" height="12.3417" fill="#292929"/>
<rect x="518.396" y="147.72" width="41.139" height="12.3417" transform="rotate(-90 518.396 147.72)" fill="#292929"/>
<rect x="518.396" y="106.581" width="41.139" height="12.3417" fill="#292929"/>
<rect x="547.194" y="118.923" width="41.139" height="12.3417" transform="rotate(-90 547.194 118.923)" fill="#292929"/>
<rect x="551.308" y="77.7836" width="41.139" height="12.3417" fill="#292929"/>
<rect x="580.105" y="90.1253" width="41.139" height="12.3417" transform="rotate(-90 580.105 90.1253)" fill="#292929"/>
<rect x="584.219" y="48.9863" width="41.139" height="12.3417" fill="#292929"/>
<rect x="613.016" y="61.328" width="41.139" height="12.3417" transform="rotate(-90 613.016 61.328)" fill="#292929"/>
<rect x="613.016" y="20.1891" width="41.139" height="12.3417" fill="#292929"/>
<rect x="641.813" y="32.5308" width="41.139" height="12.3417" transform="rotate(-90 641.813 32.5308)" fill="#292929"/>
<rect x="645.927" y="-8.60822" width="41.139" height="12.3417" fill="#292929"/>
<rect x="674.724" y="3.73349" width="41.139" height="12.3417" transform="rotate(-90 674.724 3.73349)" fill="#292929"/>
<rect x="-16.41" y="649.615" width="41.139" height="12.3417" fill="#292929"/>
<rect x="12.3873" y="661.957" width="41.139" height="12.3417" transform="rotate(-90 12.3873 661.957)" fill="#292929"/>
<rect x="16.5012" y="620.818" width="41.139" height="12.3417" fill="#292929"/>
<rect x="45.2984" y="633.159" width="41.139" height="12.3417" transform="rotate(-90 45.2984 633.159)" fill="#292929"/>
<rect x="45.2984" y="592.021" width="41.139" height="12.3417" fill="#292929"/>
<rect x="74.0957" y="604.362" width="41.139" height="12.3417" transform="rotate(-90 74.0957 604.362)" fill="#292929"/>
<rect x="78.2096" y="563.223" width="41.139" height="12.3417" fill="#292929"/>
<rect x="107.007" y="575.565" width="41.139" height="12.3417" transform="rotate(-90 107.007 575.565)" fill="#292929"/>
<rect x="107.007" y="534.426" width="41.139" height="12.3417" fill="#292929"/>
<rect x="135.804" y="546.768" width="41.139" height="12.3417" transform="rotate(-90 135.804 546.768)" fill="#292929"/>
<rect x="139.918" y="505.629" width="41.139" height="12.3417" fill="#292929"/>
<rect x="168.715" y="517.97" width="41.139" height="12.3417" transform="rotate(-90 168.715 517.97)" fill="#292929"/>
<rect x="172.829" y="476.831" width="41.139" height="12.3417" fill="#292929"/>
<rect x="201.626" y="489.173" width="41.139" height="12.3417" transform="rotate(-90 201.626 489.173)" fill="#292929"/>
<rect x="201.626" y="448.034" width="41.139" height="12.3417" fill="#292929"/>
<rect x="230.424" y="460.376" width="41.139" height="12.3417" transform="rotate(-90 230.424 460.376)" fill="#292929"/>
<rect x="234.538" y="419.237" width="41.139" height="12.3417" fill="#292929"/>
<rect x="263.335" y="431.579" width="41.139" height="12.3417" transform="rotate(-90 263.335 431.579)" fill="#292929"/>
<rect x="267.449" y="390.44" width="41.139" height="12.3417" fill="#292929"/>
<rect x="296.246" y="402.781" width="41.139" height="12.3417" transform="rotate(-90 296.246 402.781)" fill="#292929"/>
<rect x="296.246" y="361.642" width="41.139" height="12.3417" fill="#292929"/>
<rect x="325.043" y="373.984" width="41.139" height="12.3417" transform="rotate(-90 325.043 373.984)" fill="#292929"/>
<rect x="329.157" y="332.845" width="41.139" height="12.3417" fill="#292929"/>
<rect x="357.954" y="345.187" width="41.139" height="12.3417" transform="rotate(-90 357.954 345.187)" fill="#292929"/>
<rect x="357.954" y="304.048" width="41.139" height="12.3417" fill="#292929"/>
<rect x="386.752" y="316.39" width="41.139" height="12.3417" transform="rotate(-90 386.752 316.39)" fill="#292929"/>
<rect x="390.866" y="275.251" width="41.139" height="12.3417" fill="#292929"/>
<rect x="419.663" y="287.592" width="41.139" height="12.3417" transform="rotate(-90 419.663 287.592)" fill="#292929"/>
<rect x="419.663" y="246.453" width="41.139" height="12.3417" fill="#292929"/>
<rect x="448.46" y="258.795" width="41.139" height="12.3417" transform="rotate(-90 448.46 258.795)" fill="#292929"/>
<rect x="452.574" y="217.656" width="41.139" height="12.3417" fill="#292929"/>
<rect x="481.371" y="229.998" width="41.139" height="12.3417" transform="rotate(-90 481.371 229.998)" fill="#292929"/>
<rect x="485.485" y="188.859" width="41.139" height="12.3417" fill="#292929"/>
<rect x="514.282" y="201.2" width="41.139" height="12.3417" transform="rotate(-90 514.282 201.2)" fill="#292929"/>
<rect x="514.282" y="160.062" width="41.139" height="12.3417" fill="#292929"/>
<rect x="543.08" y="172.403" width="41.139" height="12.3417" transform="rotate(-90 543.08 172.403)" fill="#292929"/>
<rect x="547.194" y="131.264" width="41.139" height="12.3417" fill="#292929"/>
<rect x="575.991" y="143.606" width="41.139" height="12.3417" transform="rotate(-90 575.991 143.606)" fill="#292929"/>
<rect x="580.105" y="102.467" width="41.139" height="12.3417" fill="#292929"/>
<rect x="608.902" y="114.809" width="41.139" height="12.3417" transform="rotate(-90 608.902 114.809)" fill="#292929"/>
<rect x="608.902" y="73.6697" width="41.139" height="12.3417" fill="#292929"/>
<rect x="637.699" y="86.0114" width="41.139" height="12.3417" transform="rotate(-90 637.699 86.0114)" fill="#292929"/>
<rect x="641.813" y="44.8724" width="41.139" height="12.3417" fill="#292929"/>
<rect x="670.61" y="57.2141" width="41.139" height="12.3417" transform="rotate(-90 670.61 57.2141)" fill="#292929"/>
<rect x="670.611" y="16.0752" width="41.139" height="12.3417" fill="#292929"/>
<rect x="699.408" y="28.4169" width="41.139" height="12.3417" transform="rotate(-90 699.408 28.4169)" fill="#292929"/>
<rect x="-20.5239" y="703.096" width="41.139" height="12.3417" fill="#292929"/>
<rect x="8.27332" y="715.437" width="41.139" height="12.3417" transform="rotate(-90 8.27332 715.437)" fill="#292929"/>
<rect x="12.3872" y="674.298" width="41.139" height="12.3417" fill="#292929"/>
<rect x="41.1845" y="686.64" width="41.139" height="12.3417" transform="rotate(-90 41.1845 686.64)" fill="#292929"/>
<rect x="41.1845" y="645.501" width="41.139" height="12.3417" fill="#292929"/>
<rect x="69.9818" y="657.843" width="41.139" height="12.3417" transform="rotate(-90 69.9818 657.843)" fill="#292929"/>
<rect x="74.0956" y="616.704" width="41.139" height="12.3417" fill="#292929"/>
<rect x="102.893" y="629.046" width="41.139" height="12.3417" transform="rotate(-90 102.893 629.046)" fill="#292929"/>
<rect x="102.893" y="587.907" width="41.139" height="12.3417" fill="#292929"/>
<rect x="131.69" y="600.248" width="41.139" height="12.3417" transform="rotate(-90 131.69 600.248)" fill="#292929"/>
<rect x="135.804" y="559.109" width="41.139" height="12.3417" fill="#292929"/>
<rect x="164.601" y="571.451" width="41.139" height="12.3417" transform="rotate(-90 164.601 571.451)" fill="#292929"/>
<rect x="164.601" y="530.312" width="41.139" height="12.3417" fill="#292929"/>
<rect x="193.399" y="542.654" width="41.139" height="12.3417" transform="rotate(-90 193.399 542.654)" fill="#292929"/>
<rect x="197.513" y="501.515" width="41.139" height="12.3417" fill="#292929"/>
<rect x="226.31" y="513.856" width="41.139" height="12.3417" transform="rotate(-90 226.31 513.856)" fill="#292929"/>
<rect x="230.424" y="472.718" width="41.139" height="12.3417" fill="#292929"/>
<rect x="259.221" y="485.059" width="41.139" height="12.3417" transform="rotate(-90 259.221 485.059)" fill="#292929"/>
<rect x="259.221" y="443.92" width="41.139" height="12.3417" fill="#292929"/>
<rect x="288.018" y="456.262" width="41.139" height="12.3417" transform="rotate(-90 288.018 456.262)" fill="#292929"/>
<rect x="292.132" y="415.123" width="41.139" height="12.3417" fill="#292929"/>
<rect x="320.929" y="427.465" width="41.139" height="12.3417" transform="rotate(-90 320.929 427.465)" fill="#292929"/>
<rect x="325.043" y="386.326" width="41.139" height="12.3417" fill="#292929"/>
<rect x="353.841" y="398.667" width="41.139" height="12.3417" transform="rotate(-90 353.841 398.667)" fill="#292929"/>
<rect x="353.841" y="357.528" width="41.139" height="12.3417" fill="#292929"/>
<rect x="382.638" y="369.87" width="41.139" height="12.3417" transform="rotate(-90 382.638 369.87)" fill="#292929"/>
<rect x="386.752" y="328.731" width="41.139" height="12.3417" fill="#292929"/>
<rect x="415.549" y="341.073" width="41.139" height="12.3417" transform="rotate(-90 415.549 341.073)" fill="#292929"/>
<rect x="415.549" y="299.934" width="41.139" height="12.3417" fill="#292929"/>
<rect x="444.346" y="312.276" width="41.139" height="12.3417" transform="rotate(-90 444.346 312.276)" fill="#292929"/>
<rect x="448.46" y="271.137" width="41.139" height="12.3417" fill="#292929"/>
<rect x="477.257" y="283.478" width="41.139" height="12.3417" transform="rotate(-90 477.257 283.478)" fill="#292929"/>
<rect x="477.257" y="242.339" width="41.139" height="12.3417" fill="#292929"/>
<rect x="506.055" y="254.681" width="41.139" height="12.3417" transform="rotate(-90 506.055 254.681)" fill="#292929"/>
<rect x="510.169" y="213.542" width="41.139" height="12.3417" fill="#292929"/>
<rect x="538.966" y="225.884" width="41.139" height="12.3417" transform="rotate(-90 538.966 225.884)" fill="#292929"/>
<rect x="543.08" y="184.745" width="41.139" height="12.3417" fill="#292929"/>
<rect x="571.877" y="197.087" width="41.139" height="12.3417" transform="rotate(-90 571.877 197.087)" fill="#292929"/>
<rect x="571.877" y="155.948" width="41.139" height="12.3417" fill="#292929"/>
<rect x="600.674" y="168.289" width="41.139" height="12.3417" transform="rotate(-90 600.674 168.289)" fill="#292929"/>
<rect x="604.788" y="127.15" width="41.139" height="12.3417" fill="#292929"/>
<rect x="633.585" y="139.492" width="41.139" height="12.3417" transform="rotate(-90 633.585 139.492)" fill="#292929"/>
<rect x="637.699" y="98.3531" width="41.139" height="12.3417" fill="#292929"/>
<rect x="666.497" y="110.695" width="41.139" height="12.3417" transform="rotate(-90 666.497 110.695)" fill="#292929"/>
<rect x="666.497" y="69.5558" width="41.139" height="12.3417" fill="#292929"/>
<rect x="695.294" y="81.8975" width="41.139" height="12.3417" transform="rotate(-90 695.294 81.8975)" fill="#292929"/>
<rect x="699.408" y="40.7585" width="41.139" height="12.3417" fill="#292929"/>
<rect x="728.205" y="53.1002" width="41.139" height="12.3417" transform="rotate(-90 728.205 53.1002)" fill="#292929"/>
<rect x="728.205" y="11.9613" width="41.139" height="12.3417" fill="#292929"/>
<rect x="757.002" y="24.3029" width="41.139" height="12.3417" transform="rotate(-90 757.002 24.3029)" fill="#292929"/>
<rect x="-28.7517" y="760.69" width="41.139" height="12.3417" fill="#292929"/>
<rect x="0.0455322" y="773.032" width="41.139" height="12.3417" transform="rotate(-90 0.0455322 773.032)" fill="#292929"/>
<rect x="0.0455322" y="731.893" width="41.139" height="12.3417" fill="#292929"/>
<rect x="28.8428" y="744.235" width="41.139" height="12.3417" transform="rotate(-90 28.8428 744.235)" fill="#292929"/>
<rect x="32.9567" y="703.096" width="41.139" height="12.3417" fill="#292929"/>
<rect x="61.754" y="715.437" width="41.139" height="12.3417" transform="rotate(-90 61.754 715.437)" fill="#292929"/>
<rect x="65.8679" y="674.298" width="41.139" height="12.3417" fill="#292929"/>
<rect x="94.6651" y="686.64" width="41.139" height="12.3417" transform="rotate(-90 94.6651 686.64)" fill="#292929"/>
<rect x="94.6652" y="645.501" width="41.139" height="12.3417" fill="#292929"/>
<rect x="123.462" y="657.843" width="41.139" height="12.3417" transform="rotate(-90 123.462 657.843)" fill="#292929"/>
<rect x="127.576" y="616.704" width="41.139" height="12.3417" fill="#292929"/>
<rect x="156.374" y="629.046" width="41.139" height="12.3417" transform="rotate(-90 156.374 629.046)" fill="#292929"/>
<rect x="156.374" y="587.907" width="41.139" height="12.3417" fill="#292929"/>
<rect x="185.171" y="600.248" width="41.139" height="12.3417" transform="rotate(-90 185.171 600.248)" fill="#292929"/>
<rect x="189.285" y="559.109" width="41.139" height="12.3417" fill="#292929"/>
<rect x="218.082" y="571.451" width="41.139" height="12.3417" transform="rotate(-90 218.082 571.451)" fill="#292929"/>
<rect x="218.082" y="530.312" width="41.139" height="12.3417" fill="#292929"/>
<rect x="246.879" y="542.654" width="41.139" height="12.3417" transform="rotate(-90 246.879 542.654)" fill="#292929"/>
<rect x="250.993" y="501.515" width="41.139" height="12.3417" fill="#292929"/>
<rect x="279.79" y="513.856" width="41.139" height="12.3417" transform="rotate(-90 279.79 513.856)" fill="#292929"/>
<rect x="283.904" y="472.718" width="41.139" height="12.3417" fill="#292929"/>
<rect x="312.702" y="485.059" width="41.139" height="12.3417" transform="rotate(-90 312.702 485.059)" fill="#292929"/>
<rect x="312.702" y="443.92" width="41.139" height="12.3417" fill="#292929"/>
<rect x="341.499" y="456.262" width="41.139" height="12.3417" transform="rotate(-90 341.499 456.262)" fill="#292929"/>
<rect x="345.613" y="415.123" width="41.139" height="12.3417" fill="#292929"/>
<rect x="374.41" y="427.465" width="41.139" height="12.3417" transform="rotate(-90 374.41 427.465)" fill="#292929"/>
<rect x="378.524" y="386.326" width="41.139" height="12.3417" fill="#292929"/>
<rect x="407.321" y="398.667" width="41.139" height="12.3417" transform="rotate(-90 407.321 398.667)" fill="#292929"/>
<rect x="407.321" y="357.528" width="41.139" height="12.3417" fill="#292929"/>
<rect x="436.118" y="369.87" width="41.139" height="12.3417" transform="rotate(-90 436.118 369.87)" fill="#292929"/>
<rect x="440.232" y="328.731" width="41.139" height="12.3417" fill="#292929"/>
<rect x="469.03" y="341.073" width="41.139" height="12.3417" transform="rotate(-90 469.03 341.073)" fill="#292929"/>
<rect x="469.03" y="299.934" width="41.139" height="12.3417" fill="#292929"/>
<rect x="497.827" y="312.276" width="41.139" height="12.3417" transform="rotate(-90 497.827 312.276)" fill="#292929"/>
<rect x="501.941" y="271.137" width="41.139" height="12.3417" fill="#292929"/>
<rect x="530.738" y="283.478" width="41.139" height="12.3417" transform="rotate(-90 530.738 283.478)" fill="#292929"/>
<rect x="530.738" y="242.339" width="41.139" height="12.3417" fill="#292929"/>
<rect x="559.535" y="254.681" width="41.139" height="12.3417" transform="rotate(-90 559.535 254.681)" fill="#292929"/>
<rect x="563.649" y="213.542" width="41.139" height="12.3417" fill="#292929"/>
<rect x="592.446" y="225.884" width="41.139" height="12.3417" transform="rotate(-90 592.446 225.884)" fill="#292929"/>
<rect x="596.56" y="184.745" width="41.139" height="12.3417" fill="#292929"/>
<rect x="625.358" y="197.087" width="41.139" height="12.3417" transform="rotate(-90 625.358 197.087)" fill="#292929"/>
<rect x="625.358" y="155.948" width="41.139" height="12.3417" fill="#292929"/>
<rect x="654.155" y="168.289" width="41.139" height="12.3417" transform="rotate(-90 654.155 168.289)" fill="#292929"/>
<rect x="658.269" y="127.15" width="41.139" height="12.3417" fill="#292929"/>
<rect x="687.066" y="139.492" width="41.139" height="12.3417" transform="rotate(-90 687.066 139.492)" fill="#292929"/>
<rect x="691.18" y="98.3531" width="41.139" height="12.3417" fill="#292929"/>
<rect x="719.977" y="110.695" width="41.139" height="12.3417" transform="rotate(-90 719.977 110.695)" fill="#292929"/>
<rect x="719.977" y="69.5558" width="41.139" height="12.3417" fill="#292929"/>
<rect x="748.774" y="81.8975" width="41.139" height="12.3417" transform="rotate(-90 748.774 81.8975)" fill="#292929"/>
<rect x="752.888" y="40.7585" width="41.139" height="12.3417" fill="#292929"/>
<rect x="781.686" y="53.1002" width="41.139" height="12.3417" transform="rotate(-90 781.686 53.1002)" fill="#292929"/>
<rect x="781.686" y="11.9613" width="41.139" height="12.3417" fill="#292929"/>
<rect x="810.483" y="24.3029" width="41.139" height="12.3417" transform="rotate(-90 810.483 24.3029)" fill="#292929"/>
<rect x="-32.8656" y="814.171" width="41.139" height="12.3417" fill="#292929"/>
<rect x="-4.06836" y="826.513" width="41.139" height="12.3417" transform="rotate(-90 -4.06836 826.513)" fill="#292929"/>
<rect x="-4.06836" y="785.374" width="41.139" height="12.3417" fill="#292929"/>
<rect x="24.7289" y="797.715" width="41.139" height="12.3417" transform="rotate(-90 24.7289 797.715)" fill="#292929"/>
<rect x="28.8428" y="756.576" width="41.139" height="12.3417" fill="#292929"/>
<rect x="57.6401" y="768.918" width="41.139" height="12.3417" transform="rotate(-90 57.6401 768.918)" fill="#292929"/>
<rect x="61.754" y="727.779" width="41.139" height="12.3417" fill="#292929"/>
<rect x="90.5512" y="740.121" width="41.139" height="12.3417" transform="rotate(-90 90.5512 740.121)" fill="#292929"/>
<rect x="90.5513" y="698.982" width="41.139" height="12.3417" fill="#292929"/>
<rect x="119.349" y="711.323" width="41.139" height="12.3417" transform="rotate(-90 119.349 711.323)" fill="#292929"/>
<rect x="123.462" y="670.185" width="41.139" height="12.3417" fill="#292929"/>
<rect x="152.26" y="682.526" width="41.139" height="12.3417" transform="rotate(-90 152.26 682.526)" fill="#292929"/>
<rect x="152.26" y="641.387" width="41.139" height="12.3417" fill="#292929"/>
<rect x="181.057" y="653.729" width="41.139" height="12.3417" transform="rotate(-90 181.057 653.729)" fill="#292929"/>
<rect x="185.171" y="612.59" width="41.139" height="12.3417" fill="#292929"/>
<rect x="213.968" y="624.932" width="41.139" height="12.3417" transform="rotate(-90 213.968 624.932)" fill="#292929"/>
<rect x="213.968" y="583.793" width="41.139" height="12.3417" fill="#292929"/>
<rect x="242.765" y="596.134" width="41.139" height="12.3417" transform="rotate(-90 242.765 596.134)" fill="#292929"/>
<rect x="246.879" y="554.995" width="41.139" height="12.3417" fill="#292929"/>
<rect x="275.677" y="567.337" width="41.139" height="12.3417" transform="rotate(-90 275.677 567.337)" fill="#292929"/>
<rect x="279.79" y="526.198" width="41.139" height="12.3417" fill="#292929"/>
<rect x="308.588" y="538.54" width="41.139" height="12.3417" transform="rotate(-90 308.588 538.54)" fill="#292929"/>
<rect x="308.588" y="497.401" width="41.139" height="12.3417" fill="#292929"/>
<rect x="337.385" y="509.743" width="41.139" height="12.3417" transform="rotate(-90 337.385 509.743)" fill="#292929"/>
<rect x="341.499" y="468.604" width="41.139" height="12.3417" fill="#292929"/>
<rect x="370.296" y="480.945" width="41.139" height="12.3417" transform="rotate(-90 370.296 480.945)" fill="#292929"/>
<rect x="374.41" y="439.806" width="41.139" height="12.3417" fill="#292929"/>
<rect x="403.207" y="452.148" width="41.139" height="12.3417" transform="rotate(-90 403.207 452.148)" fill="#292929"/>
<rect x="403.207" y="411.009" width="41.139" height="12.3417" fill="#292929"/>
<rect x="432.005" y="423.351" width="41.139" height="12.3417" transform="rotate(-90 432.005 423.351)" fill="#292929"/>
<rect x="436.118" y="382.212" width="41.139" height="12.3417" fill="#292929"/>
<rect x="464.916" y="394.554" width="41.139" height="12.3417" transform="rotate(-90 464.916 394.554)" fill="#292929"/>
<rect x="464.916" y="353.415" width="41.139" height="12.3417" fill="#292929"/>
<rect x="493.713" y="365.756" width="41.139" height="12.3417" transform="rotate(-90 493.713 365.756)" fill="#292929"/>
<rect x="497.827" y="324.617" width="41.139" height="12.3417" fill="#292929"/>
<rect x="526.624" y="336.959" width="41.139" height="12.3417" transform="rotate(-90 526.624 336.959)" fill="#292929"/>
<rect x="526.624" y="295.82" width="41.139" height="12.3417" fill="#292929"/>
<rect x="555.421" y="308.162" width="41.139" height="12.3417" transform="rotate(-90 555.421 308.162)" fill="#292929"/>
<rect x="559.535" y="267.023" width="41.139" height="12.3417" fill="#292929"/>
<rect x="588.333" y="279.364" width="41.139" height="12.3417" transform="rotate(-90 588.333 279.364)" fill="#292929"/>
<rect x="592.446" y="238.226" width="41.139" height="12.3417" fill="#292929"/>
<rect x="621.244" y="250.567" width="41.139" height="12.3417" transform="rotate(-90 621.244 250.567)" fill="#292929"/>
<rect x="621.244" y="209.428" width="41.139" height="12.3417" fill="#292929"/>
<rect x="650.041" y="221.77" width="41.139" height="12.3417" transform="rotate(-90 650.041 221.77)" fill="#292929"/>
<rect x="654.155" y="180.631" width="41.139" height="12.3417" fill="#292929"/>
<rect x="682.952" y="192.973" width="41.139" height="12.3417" transform="rotate(-90 682.952 192.973)" fill="#292929"/>
<rect x="687.066" y="151.834" width="41.139" height="12.3417" fill="#292929"/>
<rect x="715.863" y="164.175" width="41.139" height="12.3417" transform="rotate(-90 715.863 164.175)" fill="#292929"/>
<rect x="715.863" y="123.036" width="41.139" height="12.3417" fill="#292929"/>
<rect x="744.661" y="135.378" width="41.139" height="12.3417" transform="rotate(-90 744.661 135.378)" fill="#292929"/>
<rect x="748.775" y="94.2392" width="41.139" height="12.3417" fill="#292929"/>
<rect x="777.572" y="106.581" width="41.139" height="12.3417" transform="rotate(-90 777.572 106.581)" fill="#292929"/>
<rect x="777.572" y="65.4419" width="41.139" height="12.3417" fill="#292929"/>
<rect x="806.369" y="77.7836" width="41.139" height="12.3417" transform="rotate(-90 806.369 77.7836)" fill="#292929"/>
<rect x="810.483" y="36.6447" width="41.139" height="12.3417" fill="#292929"/>
<rect x="839.28" y="48.9863" width="41.139" height="12.3417" transform="rotate(-90 839.28 48.9863)" fill="#292929"/>
<rect x="-41.0934" y="867.651" width="41.139" height="12.3417" fill="#292929"/>
<rect x="-12.2961" y="879.993" width="41.139" height="12.3417" transform="rotate(-90 -12.2961 879.993)" fill="#292929"/>
<rect x="-8.18225" y="838.854" width="41.139" height="12.3417" fill="#292929"/>
<rect x="20.615" y="851.196" width="41.139" height="12.3417" transform="rotate(-90 20.615 851.196)" fill="#292929"/>
<rect x="24.7289" y="810.057" width="41.139" height="12.3417" fill="#292929"/>
<rect x="53.5262" y="822.399" width="41.139" height="12.3417" transform="rotate(-90 53.5262 822.399)" fill="#292929"/>
<rect x="53.5262" y="781.26" width="41.139" height="12.3417" fill="#292929"/>
<rect x="82.3235" y="793.601" width="41.139" height="12.3417" transform="rotate(-90 82.3235 793.601)" fill="#292929"/>
<rect x="86.4374" y="752.462" width="41.139" height="12.3417" fill="#292929"/>
<rect x="115.235" y="764.804" width="41.139" height="12.3417" transform="rotate(-90 115.235 764.804)" fill="#292929"/>
<rect x="119.349" y="723.665" width="41.139" height="12.3417" fill="#292929"/>
<rect x="148.146" y="736.007" width="41.139" height="12.3417" transform="rotate(-90 148.146 736.007)" fill="#292929"/>
<rect x="148.146" y="694.868" width="41.139" height="12.3417" fill="#292929"/>
<rect x="176.943" y="707.21" width="41.139" height="12.3417" transform="rotate(-90 176.943 707.21)" fill="#292929"/>
<rect x="181.057" y="666.071" width="41.139" height="12.3417" fill="#292929"/>
<rect x="209.854" y="678.412" width="41.139" height="12.3417" transform="rotate(-90 209.854 678.412)" fill="#292929"/>
<rect x="209.854" y="637.273" width="41.139" height="12.3417" fill="#292929"/>
<rect x="238.651" y="649.615" width="41.139" height="12.3417" transform="rotate(-90 238.651 649.615)" fill="#292929"/>
<rect x="242.765" y="608.476" width="41.139" height="12.3417" fill="#292929"/>
<rect x="271.563" y="620.818" width="41.139" height="12.3417" transform="rotate(-90 271.563 620.818)" fill="#292929"/>
<rect x="271.563" y="579.679" width="41.139" height="12.3417" fill="#292929"/>
<rect x="300.36" y="592.021" width="41.139" height="12.3417" transform="rotate(-90 300.36 592.021)" fill="#292929"/>
<rect x="304.474" y="550.882" width="41.139" height="12.3417" fill="#292929"/>
<rect x="333.271" y="563.223" width="41.139" height="12.3417" transform="rotate(-90 333.271 563.223)" fill="#292929"/>
<rect x="337.385" y="522.084" width="41.139" height="12.3417" fill="#292929"/>
<rect x="366.182" y="534.426" width="41.139" height="12.3417" transform="rotate(-90 366.182 534.426)" fill="#292929"/>
<rect x="366.182" y="493.287" width="41.139" height="12.3417" fill="#292929"/>
<rect x="394.979" y="505.629" width="41.139" height="12.3417" transform="rotate(-90 394.979 505.629)" fill="#292929"/>
<rect x="399.093" y="464.49" width="41.139" height="12.3417" fill="#292929"/>
<rect x="427.891" y="476.831" width="41.139" height="12.3417" transform="rotate(-90 427.891 476.831)" fill="#292929"/>
<rect x="432.005" y="435.692" width="41.139" height="12.3417" fill="#292929"/>
<rect x="460.802" y="448.034" width="41.139" height="12.3417" transform="rotate(-90 460.802 448.034)" fill="#292929"/>
<rect x="460.802" y="406.895" width="41.139" height="12.3417" fill="#292929"/>
<rect x="489.599" y="419.237" width="41.139" height="12.3417" transform="rotate(-90 489.599 419.237)" fill="#292929"/>
<rect x="493.713" y="378.098" width="41.139" height="12.3417" fill="#292929"/>
<rect x="522.51" y="390.44" width="41.139" height="12.3417" transform="rotate(-90 522.51 390.44)" fill="#292929"/>
<rect x="522.51" y="349.301" width="41.139" height="12.3417" fill="#292929"/>
<rect x="551.308" y="361.642" width="41.139" height="12.3417" transform="rotate(-90 551.308 361.642)" fill="#292929"/>
<rect x="555.421" y="320.503" width="41.139" height="12.3417" fill="#292929"/>
<rect x="584.219" y="332.845" width="41.139" height="12.3417" transform="rotate(-90 584.219 332.845)" fill="#292929"/>
<rect x="584.219" y="291.706" width="41.139" height="12.3417" fill="#292929"/>
<rect x="613.016" y="304.048" width="41.139" height="12.3417" transform="rotate(-90 613.016 304.048)" fill="#292929"/>
<rect x="617.13" y="262.909" width="41.139" height="12.3417" fill="#292929"/>
<rect x="645.927" y="275.251" width="41.139" height="12.3417" transform="rotate(-90 645.927 275.251)" fill="#292929"/>
<rect x="650.041" y="234.112" width="41.139" height="12.3417" fill="#292929"/>
<rect x="678.838" y="246.453" width="41.139" height="12.3417" transform="rotate(-90 678.838 246.453)" fill="#292929"/>
<rect x="678.838" y="205.314" width="41.139" height="12.3417" fill="#292929"/>
<rect x="707.636" y="217.656" width="41.139" height="12.3417" transform="rotate(-90 707.636 217.656)" fill="#292929"/>
<rect x="711.749" y="176.517" width="41.139" height="12.3417" fill="#292929"/>
<rect x="740.547" y="188.859" width="41.139" height="12.3417" transform="rotate(-90 740.547 188.859)" fill="#292929"/>
<rect x="744.661" y="147.72" width="41.139" height="12.3417" fill="#292929"/>
<rect x="773.458" y="160.062" width="41.139" height="12.3417" transform="rotate(-90 773.458 160.062)" fill="#292929"/>
<rect x="773.458" y="118.923" width="41.139" height="12.3417" fill="#292929"/>
<rect x="802.255" y="131.264" width="41.139" height="12.3417" transform="rotate(-90 802.255 131.264)" fill="#292929"/>
<rect x="806.369" y="90.1253" width="41.139" height="12.3417" fill="#292929"/>
<rect x="835.166" y="102.467" width="41.139" height="12.3417" transform="rotate(-90 835.166 102.467)" fill="#292929"/>
<rect x="835.166" y="61.328" width="41.139" height="12.3417" fill="#292929"/>
<rect x="863.964" y="73.6697" width="41.139" height="12.3417" transform="rotate(-90 863.964 73.6697)" fill="#292929"/>
<rect x="868.077" y="32.5308" width="41.139" height="12.3417" fill="#292929"/>
<rect x="896.875" y="44.8724" width="41.139" height="12.3417" transform="rotate(-90 896.875 44.8724)" fill="#292929"/>
<rect x="78.2096" y="805.943" width="41.139" height="12.3417" fill="#292929"/>
<rect x="107.007" y="818.285" width="41.139" height="12.3417" transform="rotate(-90 107.007 818.285)" fill="#292929"/>
<rect x="111.121" y="777.146" width="41.139" height="12.3417" fill="#292929"/>
<rect x="139.918" y="789.487" width="41.139" height="12.3417" transform="rotate(-90 139.918 789.487)" fill="#292929"/>
<rect x="144.032" y="748.349" width="41.139" height="12.3417" fill="#292929"/>
<rect x="172.829" y="760.69" width="41.139" height="12.3417" transform="rotate(-90 172.829 760.69)" fill="#292929"/>
<rect x="172.829" y="719.551" width="41.139" height="12.3417" fill="#292929"/>
<rect x="201.626" y="731.893" width="41.139" height="12.3417" transform="rotate(-90 201.626 731.893)" fill="#292929"/>
<rect x="205.74" y="690.754" width="41.139" height="12.3417" fill="#292929"/>
<rect x="234.538" y="703.096" width="41.139" height="12.3417" transform="rotate(-90 234.538 703.096)" fill="#292929"/>
<rect x="238.651" y="661.957" width="41.139" height="12.3417" fill="#292929"/>
<rect x="267.449" y="674.298" width="41.139" height="12.3417" transform="rotate(-90 267.449 674.298)" fill="#292929"/>
<rect x="267.449" y="633.159" width="41.139" height="12.3417" fill="#292929"/>
<rect x="296.246" y="645.501" width="41.139" height="12.3417" transform="rotate(-90 296.246 645.501)" fill="#292929"/>
<rect x="300.36" y="604.362" width="41.139" height="12.3417" fill="#292929"/>
<rect x="329.157" y="616.704" width="41.139" height="12.3417" transform="rotate(-90 329.157 616.704)" fill="#292929"/>
<rect x="329.157" y="575.565" width="41.139" height="12.3417" fill="#292929"/>
<rect x="357.954" y="587.907" width="41.139" height="12.3417" transform="rotate(-90 357.954 587.907)" fill="#292929"/>
<rect x="362.068" y="546.768" width="41.139" height="12.3417" fill="#292929"/>
<rect x="390.866" y="559.109" width="41.139" height="12.3417" transform="rotate(-90 390.866 559.109)" fill="#292929"/>
<rect x="390.866" y="517.97" width="41.139" height="12.3417" fill="#292929"/>
<rect x="419.663" y="530.312" width="41.139" height="12.3417" transform="rotate(-90 419.663 530.312)" fill="#292929"/>
<rect x="423.777" y="489.173" width="41.139" height="12.3417" fill="#292929"/>
<rect x="452.574" y="501.515" width="41.139" height="12.3417" transform="rotate(-90 452.574 501.515)" fill="#292929"/>
<rect x="456.688" y="460.376" width="41.139" height="12.3417" fill="#292929"/>
<rect x="485.485" y="472.718" width="41.139" height="12.3417" transform="rotate(-90 485.485 472.718)" fill="#292929"/>
<rect x="485.485" y="431.579" width="41.139" height="12.3417" fill="#292929"/>
<rect x="514.282" y="443.92" width="41.139" height="12.3417" transform="rotate(-90 514.282 443.92)" fill="#292929"/>
<rect x="518.396" y="402.781" width="41.139" height="12.3417" fill="#292929"/>
<rect x="547.194" y="415.123" width="41.139" height="12.3417" transform="rotate(-90 547.194 415.123)" fill="#292929"/>
<rect x="551.308" y="373.984" width="41.139" height="12.3417" fill="#292929"/>
<rect x="580.105" y="386.326" width="41.139" height="12.3417" transform="rotate(-90 580.105 386.326)" fill="#292929"/>
<rect x="580.105" y="345.187" width="41.139" height="12.3417" fill="#292929"/>
<rect x="608.902" y="357.528" width="41.139" height="12.3417" transform="rotate(-90 608.902 357.528)" fill="#292929"/>
<rect x="613.016" y="316.39" width="41.139" height="12.3417" fill="#292929"/>
<rect x="641.813" y="328.731" width="41.139" height="12.3417" transform="rotate(-90 641.813 328.731)" fill="#292929"/>
<rect x="641.813" y="287.592" width="41.139" height="12.3417" fill="#292929"/>
<rect x="670.61" y="299.934" width="41.139" height="12.3417" transform="rotate(-90 670.61 299.934)" fill="#292929"/>
<rect x="674.724" y="258.795" width="41.139" height="12.3417" fill="#292929"/>
<rect x="703.522" y="271.137" width="41.139" height="12.3417" transform="rotate(-90 703.522 271.137)" fill="#292929"/>
<rect x="703.522" y="229.998" width="41.139" height="12.3417" fill="#292929"/>
<rect x="732.319" y="242.339" width="41.139" height="12.3417" transform="rotate(-90 732.319 242.339)" fill="#292929"/>
<rect x="736.433" y="201.2" width="41.139" height="12.3417" fill="#292929"/>
<rect x="765.23" y="213.542" width="41.139" height="12.3417" transform="rotate(-90 765.23 213.542)" fill="#292929"/>
<rect x="769.344" y="172.403" width="41.139" height="12.3417" fill="#292929"/>
<rect x="798.141" y="184.745" width="41.139" height="12.3417" transform="rotate(-90 798.141 184.745)" fill="#292929"/>
<rect x="798.141" y="143.606" width="41.139" height="12.3417" fill="#292929"/>
<rect x="826.939" y="155.948" width="41.139" height="12.3417" transform="rotate(-90 826.939 155.948)" fill="#292929"/>
<rect x="831.052" y="114.809" width="41.139" height="12.3417" fill="#292929"/>
<rect x="859.85" y="127.15" width="41.139" height="12.3417" transform="rotate(-90 859.85 127.15)" fill="#292929"/>
<rect x="863.964" y="86.0114" width="41.139" height="12.3417" fill="#292929"/>
<rect x="892.761" y="98.3531" width="41.139" height="12.3417" transform="rotate(-90 892.761 98.3531)" fill="#292929"/>
<rect x="892.761" y="57.2141" width="41.139" height="12.3417" fill="#292929"/>
<rect x="921.558" y="69.5558" width="41.139" height="12.3417" transform="rotate(-90 921.558 69.5558)" fill="#292929"/>
<rect x="925.672" y="28.4169" width="41.139" height="12.3417" fill="#292929"/>
<rect x="954.469" y="40.7585" width="41.139" height="12.3417" transform="rotate(-90 954.469 40.7585)" fill="#292929"/>
<rect x="954.469" y="-0.380402" width="41.139" height="12.3417" fill="#292929"/>
<rect x="983.267" y="11.9613" width="41.139" height="12.3417" transform="rotate(-90 983.267 11.9613)" fill="#292929"/>
<rect x="74.0957" y="859.424" width="41.139" height="12.3417" fill="#292929"/>
<rect x="102.893" y="871.765" width="41.139" height="12.3417" transform="rotate(-90 102.893 871.765)" fill="#292929"/>
<rect x="107.007" y="830.626" width="41.139" height="12.3417" fill="#292929"/>
<rect x="135.804" y="842.968" width="41.139" height="12.3417" transform="rotate(-90 135.804 842.968)" fill="#292929"/>
<rect x="139.918" y="801.829" width="41.139" height="12.3417" fill="#292929"/>
<rect x="168.715" y="814.171" width="41.139" height="12.3417" transform="rotate(-90 168.715 814.171)" fill="#292929"/>
<rect x="168.715" y="773.032" width="41.139" height="12.3417" fill="#292929"/>
<rect x="197.513" y="785.374" width="41.139" height="12.3417" transform="rotate(-90 197.513 785.374)" fill="#292929"/>
<rect x="201.626" y="744.235" width="41.139" height="12.3417" fill="#292929"/>
<rect x="230.424" y="756.576" width="41.139" height="12.3417" transform="rotate(-90 230.424 756.576)" fill="#292929"/>
<rect x="234.538" y="715.437" width="41.139" height="12.3417" fill="#292929"/>
<rect x="263.335" y="727.779" width="41.139" height="12.3417" transform="rotate(-90 263.335 727.779)" fill="#292929"/>
<rect x="263.335" y="686.64" width="41.139" height="12.3417" fill="#292929"/>
<rect x="292.132" y="698.982" width="41.139" height="12.3417" transform="rotate(-90 292.132 698.982)" fill="#292929"/>
<rect x="296.246" y="657.843" width="41.139" height="12.3417" fill="#292929"/>
<rect x="325.043" y="670.185" width="41.139" height="12.3417" transform="rotate(-90 325.043 670.185)" fill="#292929"/>
<rect x="325.043" y="629.046" width="41.139" height="12.3417" fill="#292929"/>
<rect x="353.841" y="641.387" width="41.139" height="12.3417" transform="rotate(-90 353.841 641.387)" fill="#292929"/>
<rect x="357.954" y="600.248" width="41.139" height="12.3417" fill="#292929"/>
<rect x="386.752" y="612.59" width="41.139" height="12.3417" transform="rotate(-90 386.752 612.59)" fill="#292929"/>
<rect x="386.752" y="571.451" width="41.139" height="12.3417" fill="#292929"/>
<rect x="415.549" y="583.793" width="41.139" height="12.3417" transform="rotate(-90 415.549 583.793)" fill="#292929"/>
<rect x="419.663" y="542.654" width="41.139" height="12.3417" fill="#292929"/>
<rect x="448.46" y="554.995" width="41.139" height="12.3417" transform="rotate(-90 448.46 554.995)" fill="#292929"/>
<rect x="452.574" y="513.856" width="41.139" height="12.3417" fill="#292929"/>
<rect x="481.371" y="526.198" width="41.139" height="12.3417" transform="rotate(-90 481.371 526.198)" fill="#292929"/>
<rect x="481.371" y="485.059" width="41.139" height="12.3417" fill="#292929"/>
<rect x="510.169" y="497.401" width="41.139" height="12.3417" transform="rotate(-90 510.169 497.401)" fill="#292929"/>
<rect x="514.282" y="456.262" width="41.139" height="12.3417" fill="#292929"/>
<rect x="543.08" y="468.604" width="41.139" height="12.3417" transform="rotate(-90 543.08 468.604)" fill="#292929"/>
<rect x="547.194" y="427.465" width="41.139" height="12.3417" fill="#292929"/>
<rect x="575.991" y="439.806" width="41.139" height="12.3417" transform="rotate(-90 575.991 439.806)" fill="#292929"/>
<rect x="575.991" y="398.667" width="41.139" height="12.3417" fill="#292929"/>
<rect x="604.788" y="411.009" width="41.139" height="12.3417" transform="rotate(-90 604.788 411.009)" fill="#292929"/>
<rect x="608.902" y="369.87" width="41.139" height="12.3417" fill="#292929"/>
<rect x="637.699" y="382.212" width="41.139" height="12.3417" transform="rotate(-90 637.699 382.212)" fill="#292929"/>
<rect x="637.699" y="341.073" width="41.139" height="12.3417" fill="#292929"/>
<rect x="666.497" y="353.415" width="41.139" height="12.3417" transform="rotate(-90 666.497 353.415)" fill="#292929"/>
<rect x="670.61" y="312.276" width="41.139" height="12.3417" fill="#292929"/>
<rect x="699.408" y="324.617" width="41.139" height="12.3417" transform="rotate(-90 699.408 324.617)" fill="#292929"/>
<rect x="699.408" y="283.478" width="41.139" height="12.3417" fill="#292929"/>
<rect x="728.205" y="295.82" width="41.139" height="12.3417" transform="rotate(-90 728.205 295.82)" fill="#292929"/>
<rect x="732.319" y="254.681" width="41.139" height="12.3417" fill="#292929"/>
<rect x="761.116" y="267.023" width="41.139" height="12.3417" transform="rotate(-90 761.116 267.023)" fill="#292929"/>
<rect x="765.23" y="225.884" width="41.139" height="12.3417" fill="#292929"/>
<rect x="794.027" y="238.226" width="41.139" height="12.3417" transform="rotate(-90 794.027 238.226)" fill="#292929"/>
<rect x="794.027" y="197.087" width="41.139" height="12.3417" fill="#292929"/>
<rect x="822.825" y="209.428" width="41.139" height="12.3417" transform="rotate(-90 822.825 209.428)" fill="#292929"/>
<rect x="826.939" y="168.289" width="41.139" height="12.3417" fill="#292929"/>
<rect x="855.736" y="180.631" width="41.139" height="12.3417" transform="rotate(-90 855.736 180.631)" fill="#292929"/>
<rect x="859.85" y="139.492" width="41.139" height="12.3417" fill="#292929"/>
<rect x="888.647" y="151.834" width="41.139" height="12.3417" transform="rotate(-90 888.647 151.834)" fill="#292929"/>
<rect x="888.647" y="110.695" width="41.139" height="12.3417" fill="#292929"/>
<rect x="917.444" y="123.036" width="41.139" height="12.3417" transform="rotate(-90 917.444 123.036)" fill="#292929"/>
<rect x="921.558" y="81.8975" width="41.139" height="12.3417" fill="#292929"/>
<rect x="950.355" y="94.2392" width="41.139" height="12.3417" transform="rotate(-90 950.355 94.2392)" fill="#292929"/>
<rect x="950.355" y="53.1002" width="41.139" height="12.3417" fill="#292929"/>
<rect x="979.153" y="65.4419" width="41.139" height="12.3417" transform="rotate(-90 979.153 65.4419)" fill="#292929"/>
<rect x="983.267" y="24.3029" width="41.139" height="12.3417" fill="#292929"/>
<rect x="1012.06" y="36.6447" width="41.139" height="12.3417" transform="rotate(-90 1012.06 36.6447)" fill="#292929"/>
<rect x="131.69" y="855.31" width="41.139" height="12.3417" fill="#292929"/>
<rect x="160.487" y="867.651" width="41.139" height="12.3417" transform="rotate(-90 160.487 867.651)" fill="#292929"/>
<rect x="164.601" y="826.513" width="41.139" height="12.3417" fill="#292929"/>
<rect x="193.399" y="838.854" width="41.139" height="12.3417" transform="rotate(-90 193.399 838.854)" fill="#292929"/>
<rect x="197.513" y="797.715" width="41.139" height="12.3417" fill="#292929"/>
<rect x="226.31" y="810.057" width="41.139" height="12.3417" transform="rotate(-90 226.31 810.057)" fill="#292929"/>
<rect x="226.31" y="768.918" width="41.139" height="12.3417" fill="#292929"/>
<rect x="255.107" y="781.26" width="41.139" height="12.3417" transform="rotate(-90 255.107 781.26)" fill="#292929"/>
<rect x="259.221" y="740.121" width="41.139" height="12.3417" fill="#292929"/>
<rect x="288.018" y="752.462" width="41.139" height="12.3417" transform="rotate(-90 288.018 752.462)" fill="#292929"/>
<rect x="292.132" y="711.323" width="41.139" height="12.3417" fill="#292929"/>
<rect x="320.929" y="723.665" width="41.139" height="12.3417" transform="rotate(-90 320.929 723.665)" fill="#292929"/>
<rect x="320.929" y="682.526" width="41.139" height="12.3417" fill="#292929"/>
<rect x="349.727" y="694.868" width="41.139" height="12.3417" transform="rotate(-90 349.727 694.868)" fill="#292929"/>
<rect x="353.841" y="653.729" width="41.139" height="12.3417" fill="#292929"/>
<rect x="382.638" y="666.071" width="41.139" height="12.3417" transform="rotate(-90 382.638 666.071)" fill="#292929"/>
<rect x="382.638" y="624.932" width="41.139" height="12.3417" fill="#292929"/>
<rect x="411.435" y="637.273" width="41.139" height="12.3417" transform="rotate(-90 411.435 637.273)" fill="#292929"/>
<rect x="415.549" y="596.134" width="41.139" height="12.3417" fill="#292929"/>
<rect x="444.346" y="608.476" width="41.139" height="12.3417" transform="rotate(-90 444.346 608.476)" fill="#292929"/>
<rect x="444.346" y="567.337" width="41.139" height="12.3417" fill="#292929"/>
<rect x="473.143" y="579.679" width="41.139" height="12.3417" transform="rotate(-90 473.143 579.679)" fill="#292929"/>
<rect x="477.257" y="538.54" width="41.139" height="12.3417" fill="#292929"/>
<rect x="506.055" y="550.882" width="41.139" height="12.3417" transform="rotate(-90 506.055 550.882)" fill="#292929"/>
<rect x="510.169" y="509.743" width="41.139" height="12.3417" fill="#292929"/>
<rect x="538.966" y="522.084" width="41.139" height="12.3417" transform="rotate(-90 538.966 522.084)" fill="#292929"/>
<rect x="538.966" y="480.945" width="41.139" height="12.3417" fill="#292929"/>
<rect x="567.763" y="493.287" width="41.139" height="12.3417" transform="rotate(-90 567.763 493.287)" fill="#292929"/>
<rect x="571.877" y="452.148" width="41.139" height="12.3417" fill="#292929"/>
<rect x="600.674" y="464.49" width="41.139" height="12.3417" transform="rotate(-90 600.674 464.49)" fill="#292929"/>
<rect x="604.788" y="423.351" width="41.139" height="12.3417" fill="#292929"/>
<rect x="633.585" y="435.692" width="41.139" height="12.3417" transform="rotate(-90 633.585 435.692)" fill="#292929"/>
<rect x="633.585" y="394.554" width="41.139" height="12.3417" fill="#292929"/>
<rect x="662.383" y="406.895" width="41.139" height="12.3417" transform="rotate(-90 662.383 406.895)" fill="#292929"/>
<rect x="666.497" y="365.756" width="41.139" height="12.3417" fill="#292929"/>
<rect x="695.294" y="378.098" width="41.139" height="12.3417" transform="rotate(-90 695.294 378.098)" fill="#292929"/>
<rect x="695.294" y="336.959" width="41.139" height="12.3417" fill="#292929"/>
<rect x="724.091" y="349.301" width="41.139" height="12.3417" transform="rotate(-90 724.091 349.301)" fill="#292929"/>
<rect x="728.205" y="308.162" width="41.139" height="12.3417" fill="#292929"/>
<rect x="757.002" y="320.503" width="41.139" height="12.3417" transform="rotate(-90 757.002 320.503)" fill="#292929"/>
<rect x="757.002" y="279.364" width="41.139" height="12.3417" fill="#292929"/>
<rect x="785.8" y="291.706" width="41.139" height="12.3417" transform="rotate(-90 785.8 291.706)" fill="#292929"/>
<rect x="789.913" y="250.567" width="41.139" height="12.3417" fill="#292929"/>
<rect x="818.711" y="262.909" width="41.139" height="12.3417" transform="rotate(-90 818.711 262.909)" fill="#292929"/>
<rect x="822.825" y="221.77" width="41.139" height="12.3417" fill="#292929"/>
<rect x="851.622" y="234.112" width="41.139" height="12.3417" transform="rotate(-90 851.622 234.112)" fill="#292929"/>
<rect x="851.622" y="192.973" width="41.139" height="12.3417" fill="#292929"/>
<rect x="880.419" y="205.314" width="41.139" height="12.3417" transform="rotate(-90 880.419 205.314)" fill="#292929"/>
<rect x="884.533" y="164.175" width="41.139" height="12.3417" fill="#292929"/>
<rect x="913.33" y="176.517" width="41.139" height="12.3417" transform="rotate(-90 913.33 176.517)" fill="#292929"/>
<rect x="917.444" y="135.378" width="41.139" height="12.3417" fill="#292929"/>
<rect x="946.241" y="147.72" width="41.139" height="12.3417" transform="rotate(-90 946.241 147.72)" fill="#292929"/>
<rect x="946.241" y="106.581" width="41.139" height="12.3417" fill="#292929"/>
<rect x="975.039" y="118.923" width="41.139" height="12.3417" transform="rotate(-90 975.039 118.923)" fill="#292929"/>
<rect x="979.153" y="77.7836" width="41.139" height="12.3417" fill="#292929"/>
<rect x="1007.95" y="90.1253" width="41.139" height="12.3417" transform="rotate(-90 1007.95 90.1253)" fill="#292929"/>
<rect x="1007.95" y="48.9863" width="41.139" height="12.3417" fill="#292929"/>
<rect x="1036.75" y="61.328" width="41.139" height="12.3417" transform="rotate(-90 1036.75 61.328)" fill="#292929"/>
<rect x="1040.86" y="20.1891" width="41.139" height="12.3417" fill="#292929"/>
<rect x="1069.66" y="32.5308" width="41.139" height="12.3417" transform="rotate(-90 1069.66 32.5308)" fill="#292929"/>
</svg>
