<svg width="18" height="18" viewBox="0 0 470 470" fill="none" xmlns="http://www.w3.org/2000/svg">
<g clip-path="url(#clip0)">
<path d="M160 0H10.667C4.771 0 0 4.771 0 10.667V160C0 165.896 4.771 170.667 10.667 170.667H32C37.896 170.667 42.667 165.896 42.667 160V42.667H160C165.896 42.667 170.667 37.896 170.667 32V10.667C170.667 4.771 165.896 0 160 0Z" fill="black"/>
<path d="M458.667 298.667H437.334C431.438 298.667 426.667 303.438 426.667 309.334V426.667H309.333C303.437 426.667 298.666 431.438 298.666 437.334V458.667C298.666 464.563 303.437 469.334 309.333 469.334H458.666C464.562 469.334 469.333 464.563 469.333 458.667V309.333C469.333 303.437 464.563 298.667 458.667 298.667Z" fill="black"/>
</g>
<defs>
<clipPath id="clip0">
<rect width="469.333" height="469.333" fill="white"/>
</clipPath>
</defs>
</svg>
