<svg width="84" height="26" viewBox="0 0 84 26" fill="none" xmlns="http://www.w3.org/2000/svg">
<g clip-path="url(#clip0)">
<path d="M20.2751 26H39.6175V22.2759H25.7616V14.2298H35.2932V10.5053H25.7616V3.82971H38.9201V3.05176e-05H20.2751V26Z" fill="#F3F3F3"/>
<path d="M63.4428 26H56.9825L48.7256 14.5758C48.5334 14.3054 48.305 13.8788 48.0345 13.3078H47.9504V26H42.9325V0.0809937H47.9504V12.3405H48.0345C48.1788 12.0101 48.4131 11.5773 48.7378 11.0363L56.6281 0.0809937H62.6677L53.0164 12.4606L63.443 26H63.4428Z" fill="#F3F3F3"/>
<path d="M16.3773 26H9.91704C6.15725 21.1827 3.58453 17.4756 0 12.4285C3.00151 8.33038 6.5935 4.20331 9.56244 0.0809937H15.6021L5.95077 12.4606L16.3773 26Z" fill="#00BFFF"/>
<path d="M66.66 26H73.1203C76.8801 21.1827 79.4528 17.4756 83.0374 12.4285C80.0359 8.33038 76.4439 4.20331 73.4749 0.0809937H67.4353L77.0866 12.4606L66.66 26Z" fill="#00BFFF"/>
<path fill-rule="evenodd" clip-rule="evenodd" d="M65.4921 7.20053L67.4583 9.79202L69.4243 12.3831L67.4583 14.9741L65.4921 17.5656L63.526 14.9741L61.5602 12.3831L63.526 9.79202L65.4921 7.20053Z" fill="#00BFFF"/>
</g>
<defs>
<clipPath id="clip0">
<rect width="83.0373" height="26" fill="white"/>
</clipPath>
</defs>
</svg>
